<svg width="247" height="240" viewBox="0 0 247 240" fill="none" xmlns="http://www.w3.org/2000/svg">
<path opacity="0.05" d="M107.71 43.1463C118.779 39.0411 132.255 42.5717 143.763 47.7209C179.907 63.8969 206.239 94.6036 227.16 125.887C234.735 137.215 241.929 149.041 244.777 161.687C250.575 187.425 235.453 214.071 209.734 223.408C200.987 226.587 191.379 227.89 181.755 228.616C164.642 229.91 146.925 229.396 129.949 224.606C117.843 221.183 106.392 215.677 95.4081 209.594C64.734 192.597 36.7212 170.523 16.5503 143.56C7.70361 131.733 0.219479 118.401 0.00382655 104.755C-0.211826 91.1097 8.70101 77.3982 23.3654 75.0779C29.4282 74.1195 35.8414 75.117 42.0978 76.1439C51.3096 77.6574 60.6464 79.2491 69.7528 78.5889C79.1606 77.9019 91.3965 74.2344 93.1119 65.2735C94.9278 55.6524 96.6555 47.2465 107.71 43.1463Z" fill="#F65F73"/>
<path d="M59.7985 228.127C59.7985 228.127 71.625 227.416 70.2306 235.685C70.2306 235.685 70.5076 237.152 69.1793 237.809C69.1793 237.809 69.1597 237.196 67.9663 237.403C67.5424 237.476 67.1112 237.498 66.6822 237.467C66.1019 237.427 65.5506 237.2 65.1113 236.819C65.1113 236.819 61.7859 235.45 60.4944 230.027C60.4944 230.027 59.5362 228.846 59.5755 228.54L61.5702 229.391C61.5702 229.391 60.889 230.829 61.4257 232.022C61.4257 232.022 61.4894 229.445 61.8741 229.504C61.9501 229.516 62.9107 229.993 62.9107 229.993C62.9107 229.993 61.7369 232.494 62.6215 234.313C62.6215 234.313 62.2858 231.23 63.2759 230.174L64.6825 230.993C64.6825 230.993 63.3102 233.577 64.2414 235.685C64.2414 235.685 63.9963 232.45 64.9766 231.191L66.2509 232.169C66.2509 232.169 64.9619 234.716 65.7485 236.467C65.7485 236.467 65.849 232.699 66.5253 232.416C66.5253 232.416 67.6404 233.394 67.8095 233.8C67.8095 233.8 66.9272 235.648 67.4737 236.624C67.4737 236.624 67.8095 234.115 68.0864 234.103C68.0864 234.103 69.194 235.765 69.3117 236.905C69.3117 236.905 69.2627 235.21 68.3535 233.944C68.3535 233.944 69.4268 234.127 70.0542 234.822C70.0542 234.822 69.8802 233.646 68.0815 233.543C68.0815 233.543 67.1649 232.284 66.9174 232.205C66.9174 232.205 68.7088 232.056 69.7944 232.538C69.7944 232.538 68.8387 231.428 66.5891 231.932L65.3319 230.91C65.3319 230.91 67.6918 230.587 68.6892 230.944C68.6892 230.944 67.5399 229.966 64.9937 230.677L63.6263 229.861C63.6263 229.861 65.6358 229.428 66.8341 229.584C66.8341 229.584 65.5696 228.905 63.2244 229.641L62.2442 229.203C62.2442 229.203 63.7145 228.915 64.1483 228.868C64.582 228.822 64.6016 228.704 64.6016 228.704C63.6688 228.548 62.7109 228.654 61.8349 229.01C61.8349 229.01 59.7617 228.269 59.7985 228.127Z" fill="#F65F73"/>
<path opacity="0.1" d="M67.9442 239.941C72.5676 239.941 76.3155 239.31 76.3155 238.531C76.3155 237.751 72.5676 237.12 67.9442 237.12C63.3209 237.12 59.573 237.751 59.573 238.531C59.573 239.31 63.3209 239.941 67.9442 239.941Z" fill="#6C63FF"/>
<path d="M43.9553 222.565C43.9553 222.565 50.6234 222.164 49.8368 226.827C49.8783 227.063 49.8435 227.306 49.7373 227.522C49.6312 227.737 49.4592 227.913 49.2462 228.025C49.2462 228.025 49.2339 227.68 48.5625 227.797C48.3238 227.838 48.081 227.849 47.8395 227.831C47.5116 227.811 47.1996 227.683 46.9524 227.467C46.9524 227.467 45.0801 226.692 44.345 223.636C44.345 223.636 43.8058 222.968 43.8254 222.797L44.9527 223.286C44.9527 223.286 44.568 224.098 44.8694 224.77C44.8694 224.77 44.9062 223.316 45.1145 223.35C45.1586 223.35 45.7002 223.631 45.7002 223.631C45.7002 223.631 45.0385 225.042 45.5384 226.076C45.5384 226.076 45.3473 224.338 45.906 223.741L46.6975 224.203C46.6975 224.203 45.9256 225.67 46.4525 226.849C46.4525 226.849 46.3177 225.025 46.8666 224.316L47.5847 224.873C47.5847 224.873 46.8495 226.308 47.3028 227.296C47.3028 227.296 47.3592 225.171 47.7415 225.012C47.7415 225.012 48.3689 225.565 48.4644 225.792C48.4644 225.792 47.9743 226.834 48.2757 227.384C48.2757 227.384 48.4644 225.971 48.6213 225.963C48.6213 225.963 49.2462 226.9 49.3099 227.543C49.2786 226.949 49.0928 226.373 48.7708 225.873C49.1313 225.939 49.4645 226.109 49.7289 226.362C49.7289 226.362 49.6334 225.699 48.6164 225.641C48.6164 225.641 48.0993 224.929 47.9621 224.888C47.9621 224.888 48.9717 224.802 49.5844 225.073C49.5844 225.073 49.0452 224.448 47.7758 224.731L47.0676 224.154C47.0676 224.154 48.3983 223.973 48.9619 224.174C48.9619 224.174 48.3125 223.621 46.8764 224.025L46.107 223.562C46.6997 223.433 47.3069 223.381 47.913 223.408C47.913 223.408 47.2024 223.025 45.879 223.44L45.3277 223.196C45.3277 223.196 46.1584 223.032 46.401 223.007C46.6436 222.983 46.6583 222.915 46.6583 222.915C46.1319 222.827 45.5916 222.888 45.0973 223.088C45.0973 223.088 43.9357 222.646 43.9553 222.565Z" fill="#F65F73"/>
<path opacity="0.1" d="M48.5478 229.225C51.1545 229.225 53.2676 228.868 53.2676 228.428C53.2676 227.988 51.1545 227.631 48.5478 227.631C45.9411 227.631 43.8279 227.988 43.8279 228.428C43.8279 228.868 45.9411 229.225 48.5478 229.225Z" fill="#F65F73"/>
<path d="M208.001 227.046C208.001 227.046 216.051 226.557 215.108 232.181C215.156 232.467 215.113 232.76 214.984 233.02C214.856 233.28 214.649 233.493 214.392 233.628C214.392 233.628 214.377 233.21 213.566 233.352C213.277 233.401 212.984 233.415 212.691 233.394C212.296 233.368 211.921 233.213 211.623 232.954C211.623 232.954 209.359 232.022 208.479 228.33C208.479 228.33 207.827 227.526 207.854 227.32L209.211 227.897C209.211 227.897 208.748 228.875 209.113 229.69C209.113 229.69 209.158 227.934 209.417 227.978C209.471 227.978 210.123 228.315 210.123 228.315C210.123 228.315 209.324 230.027 209.927 231.249C209.927 231.249 209.699 229.152 210.373 228.433L211.329 228.988C211.329 228.988 210.395 230.748 211.03 232.183C211.03 232.183 210.866 229.983 211.52 229.125L212.387 229.8C212.387 229.8 211.51 231.533 212.044 232.734C212.044 232.734 212.115 230.171 212.576 229.976C212.576 229.976 213.333 230.643 213.449 230.917C213.449 230.917 212.848 232.176 213.221 232.841C213.221 232.841 213.449 231.13 213.637 231.13C213.637 231.13 214.392 232.262 214.47 233.037C214.434 232.32 214.21 231.626 213.821 231.022C214.257 231.104 214.659 231.312 214.978 231.619C214.978 231.619 214.86 230.819 213.632 230.748C213.632 230.748 213.01 229.89 212.843 229.839C212.843 229.839 214.069 229.736 214.804 230.064C214.804 230.064 214.152 229.311 212.62 229.653L211.765 228.956C211.765 228.956 213.37 228.736 214.051 228.978C214.051 228.978 213.267 228.311 211.535 228.797L210.603 228.242C210.603 228.242 211.971 227.949 212.787 228.054C212.787 228.054 211.927 227.592 210.336 228.093L209.67 227.795C209.67 227.795 210.672 227.597 210.966 227.567C211.26 227.538 211.275 227.455 211.275 227.455C210.64 227.349 209.989 227.421 209.393 227.663C209.393 227.663 207.976 227.139 208.001 227.046Z" fill="#F65F73"/>
<path opacity="0.1" d="M213.544 235.091C216.691 235.091 219.242 234.66 219.242 234.13C219.242 233.599 216.691 233.169 213.544 233.169C210.397 233.169 207.846 233.599 207.846 234.13C207.846 234.66 210.397 235.091 213.544 235.091Z" fill="#6C63FF"/>
<path d="M167.868 184.197H136.173V153.019H167.891L167.868 184.197ZM167.409 137.188H136.632C136.632 88.7387 182.764 91.5701 182.764 60.9187C182.764 44.0355 168.922 30.5097 152.009 30.5097C135.097 30.5097 121.259 45.0921 121.259 61.399H90.504C90.4901 53.3321 92.0715 45.3418 95.1575 37.8863C98.2435 30.4307 102.773 23.6567 108.487 17.9525C114.202 12.2483 120.987 7.72625 128.456 4.64558C135.924 1.5649 143.928 -0.0137677 152.009 9.04519e-05C185.981 9.04519e-05 213.514 27.0562 213.514 60.9187C213.514 99.2455 167.387 103.609 167.387 137.188H167.409Z" fill="#F65F73"/>
<path opacity="0.4" d="M68.8951 133.648H64.5232V129.34H68.8951V133.648ZM68.8289 127.169H64.5894C64.5894 120.494 70.9487 120.882 70.9487 116.655C70.9464 116.102 70.835 115.555 70.6207 115.045C70.4064 114.534 70.0934 114.071 69.6997 113.682C69.306 113.293 68.8392 112.984 68.3261 112.775C67.813 112.566 67.2635 112.459 66.7091 112.462C65.5896 112.488 64.5235 112.945 63.7349 113.738C62.9462 114.532 62.4962 115.599 62.4794 116.716H58.2399C58.268 114.496 59.1694 112.376 60.7496 110.813C62.3299 109.25 64.4625 108.37 66.6876 108.361C68.9127 108.352 71.0522 109.217 72.6446 110.767C74.2371 112.318 75.155 114.431 75.2005 116.65C75.1882 121.931 68.8289 122.533 68.8289 127.159V127.169Z" fill="#F65F73"/>
<path opacity="0.4" d="M101.998 163.577H97.6259V159.281H101.998V163.577ZM101.934 157.1H97.6945C97.6945 150.423 104.054 150.814 104.054 146.587C104.052 146.034 103.94 145.487 103.726 144.977C103.511 144.467 103.198 144.004 102.805 143.615C102.411 143.225 101.944 142.917 101.431 142.708C100.918 142.499 100.369 142.393 99.8143 142.396C98.69 142.416 97.6177 142.872 96.8242 143.667C96.0307 144.462 95.5782 145.533 95.5625 146.655H91.323C91.3511 144.435 92.2525 142.315 93.8327 140.752C95.413 139.189 97.5456 138.309 99.7707 138.3C101.996 138.291 104.135 139.156 105.728 140.706C107.32 142.257 108.238 144.37 108.284 146.589C108.291 151.87 101.934 152.474 101.934 157.1Z" fill="#F65F73"/>
<path opacity="0.4" d="M122.127 110.594H118.958V107.486H122.127V110.594ZM122.08 105.897H119.007C119.007 101.061 123.617 101.342 123.617 98.2809C123.615 97.8802 123.534 97.4838 123.379 97.1143C123.223 96.7449 122.996 96.4096 122.711 96.1276C122.425 95.8456 122.087 95.6225 121.715 95.4709C121.344 95.3193 120.946 95.2423 120.544 95.2442C119.731 95.2606 118.956 95.5916 118.382 96.1673C117.809 96.743 117.482 97.5183 117.471 98.3298H114.398C114.391 96.7035 115.033 95.1412 116.181 93.9867C117.329 92.8321 118.889 92.1798 120.519 92.1733C122.149 92.1668 123.715 92.8067 124.873 93.9521C126.03 95.0975 126.684 96.6546 126.69 98.2809C126.685 102.107 122.08 102.545 122.08 105.897Z" fill="#F65F73"/>
<path opacity="0.5" d="M203.634 195.046H201.843V193.286H203.634V195.046ZM203.607 192.394H201.87C201.87 189.658 204.477 189.819 204.477 188.088C204.474 187.631 204.289 187.194 203.963 186.874C203.637 186.553 203.197 186.374 202.739 186.376C202.28 186.385 201.841 186.572 201.517 186.897C201.193 187.223 201.008 187.661 201.002 188.12H199.265C199.285 187.216 199.658 186.356 200.304 185.723C200.951 185.09 201.819 184.734 202.725 184.73C203.631 184.727 204.502 185.076 205.154 185.705C205.805 186.333 206.185 187.19 206.212 188.093C206.222 190.252 203.617 190.499 203.617 192.394H203.607Z" fill="#F65F73"/>
<path opacity="0.2" d="M151.967 199.976C165.847 199.976 177.1 198.869 177.1 197.504C177.1 196.139 165.847 195.032 151.967 195.032C138.086 195.032 126.833 196.139 126.833 197.504C126.833 198.869 138.086 199.976 151.967 199.976Z" fill="black"/>
</svg>
